<svg version="1.2" xmlns="http://www.w3.org/2000/svg" viewBox="0 0 256 256" width="256" height="256">
	<style>
		.s0 { fill: #432f26 } 
		.s1 { fill: #3f221c } 
		.s2 { fill: #ebddd0 } 
		.s3 { fill: #e7dbcd } 
	</style>
	<path id="Shape 1" class="s0" d="m61.58 127.16c-34.05 0-61.58-27.53-61.58-61.58 0-34.05 27.53-61.58 61.58-61.58 34.05 0 61.58 27.53 61.58 61.58 0 34.05-27.53 61.58-61.58 61.58zm0 0c-34.05 0-61.58-27.53-61.58-61.58 0-34.05 27.53-61.58 61.58-61.58 34.05 0 61.58 27.53 61.58 61.58 0 34.05-27.53 61.58-61.58 61.58z"/>
	<path id="Shape 1 copy" class="s0" d="m109.61 251.95c-34.05-0.01-61.57-27.54-61.57-61.6 0.01-34.05 27.55-61.57 61.6-61.56 34.05 0 61.57 27.54 61.56 61.59 0 34.05-27.54 61.57-61.59 61.57zm0 0c-34.05-0.01-61.57-27.54-61.57-61.6 0.01-34.05 27.55-61.57 61.6-61.56 34.05 0 61.57 27.54 61.56 61.59 0 34.05-27.54 61.57-61.59 61.57z"/>
	<path id="Shape 1 copy 2" class="s0" d="m194.42 146.52c-34.05 0-61.58-27.53-61.58-61.58 0-34.05 27.53-61.58 61.58-61.58 34.05 0 61.58 27.53 61.58 61.58 0 34.05-27.53 61.58-61.58 61.58zm0 0c-34.05 0-61.58-27.53-61.58-61.58 0-34.05 27.53-61.58 61.58-61.58 34.05 0 61.58 27.53 61.58 61.58 0 34.05-27.53 61.58-61.58 61.58z"/>
	<path id="Color Fill 1" class="s1" d="m2.92 44.87c0 0 0.65 3.45 1.74 7.04 3.79 12.46 7.41 34.62 41.69 47.72 20.32 4.66 48.81 7.98 76.62-36.35 0.22 0.09 1.34 13.81-5.54 28.27-8.46 17.77-27.85 36.85-61.92 35.42-3.84 0.5-70.12-13.09-52.59-82.1z"/>
	<path id="Color Fill 1 copy" class="s1" d="m160.81 32.64c0 0-1.6 3.12-2.94 6.63-4.66 12.16-15.4 31.88 3.63 63.26 13.19 16.15 33.64 36.25 82.81 18.32 0.12 0.2-7.42 11.73-21.73 18.92-17.58 8.84-44.6 12-70.63-10.03-3.33-1.96-47.33-53.36 8.86-97.1z"/>
	<path id="Color Fill 1 copy 2" class="s1" d="m151.07 144.26c0 0-3.43-0.74-7.16-1.13-12.96-1.34-34.78-6.62-60.17 19.88-12.18 16.92-26.31 41.88 3.74 84.73-0.17 0.17-13.25-4.13-23.9-16.09-13.09-14.69-23.14-39.97-8.59-70.81 1.03-3.74 39.29-59.53 96.08-16.58z"/>
	<path id="Layer 3" class="s2" d="m64.22 14.08c-9.16-0.42-14.44 0.79-21.62 3.44-1.88 0.69-4.34 1.67-3.39 3.93 0.82 1.95 3.6 1.02 6.27 0.39 4.67-1.12 9.21-2.98 17.32-2.77 7.7 0.2 10.35 1.09 16.91 3.85 3.27 1.39 6.96 4.05 8.05 1.84 0.87-1.76-0.63-3.13-2.12-4.19-2.11-1.51-5.12-2.58-6.83-3.32-3.8-1.63-8.66-2.89-14.59-3.17z"/>
	<path id="Layer 3 copy" class="s2" d="m155.01 215.36c4.86-7.78 6.38-12.98 7.59-20.54 0.32-1.98 0.67-4.6-1.77-4.88-2.1-0.24-2.65 2.64-3.4 5.28-1.32 4.62-1.92 9.49-6.07 16.45-3.95 6.62-6.02 8.5-11.64 12.86-2.81 2.18-6.94 4.09-5.55 6.12 1.11 1.63 3.05 0.98 4.69 0.21 2.36-1.1 4.76-3.2 6.24-4.34 3.29-2.51 6.76-6.13 9.91-11.16z"/>
	<path id="Layer 2" class="s3" d="m141 202zm93.19-151.62c0 0-7.69-8.55-18.15-14.01-0.74-0.38-2.6-0.79-3.97 0.57-1.6 1.61-0.92 2.51 2.83 5.06 6.89 4.68 10.03 7.58 13.26 10.66 2.79 2.66 5 5.59 7.34 10.66 2.19 4.75 4.74 10.22 5.19 10.51 0.15 0.1 1.19 1.31 2.85 0.32 1.49-0.89 1.9-2.06 1.32-4.21-0.29-1.07-1.39-3.19-1.61-4.03-0.56-2.18-1.55-3.78-2.63-5.89-2.73-5.33-6.18-9.21-6.18-9.21"/>
</svg>