<svg version="1.2" xmlns="http://www.w3.org/2000/svg" viewBox="0 0 256 256" width="256" height="256">
	<style>
		.s0 { fill: #432f26 } 
		.s1 { fill: #3f221c } 
		.s2 { fill: #e7dbcd } 
		.s3 { fill: #ebddd0 } 
	</style>
	<path id="Shape 1" class="s0" d="m61.58 127.16c-34.05 0-61.58-27.53-61.58-61.58 0-34.05 27.53-61.58 61.58-61.58 34.05 0 61.58 27.53 61.58 61.58 0 34.05-27.53 61.58-61.58 61.58zm0 0c-34.05 0-61.58-27.53-61.58-61.58 0-34.05 27.53-61.58 61.58-61.58 34.05 0 61.58 27.53 61.58 61.58 0 34.05-27.53 61.58-61.58 61.58z"/>
	<path id="Shape 1 copy" class="s0" d="m109.61 251.95c-34.05-0.01-61.57-27.54-61.57-61.6 0.01-34.05 27.55-61.57 61.6-61.56 34.05 0 61.57 27.54 61.56 61.59 0 34.05-27.54 61.57-61.59 61.57zm0 0c-34.05-0.01-61.57-27.54-61.57-61.6 0.01-34.05 27.55-61.57 61.6-61.56 34.05 0 61.57 27.54 61.56 61.59 0 34.05-27.54 61.57-61.59 61.57z"/>
	<path id="Shape 1 copy 2" class="s0" d="m194.42 146.52c-34.05 0-61.58-27.53-61.58-61.58 0-34.05 27.53-61.58 61.58-61.58 34.05 0 61.58 27.53 61.58 61.58 0 34.05-27.53 61.58-61.58 61.58zm0 0c-34.05 0-61.58-27.53-61.58-61.58 0-34.05 27.53-61.58 61.58-61.58 34.05 0 61.58 27.53 61.58 61.58 0 34.05-27.53 61.58-61.58 61.58z"/>
	<path id="Color Fill 1" class="s1" d="m2.92 44.87c0 0 0.65 3.45 1.74 7.04 3.79 12.46 7.41 34.62 41.69 47.72 20.32 4.66 48.81 7.98 76.62-36.35 0.22 0.09 1.34 13.81-5.54 28.27-8.46 17.77-27.85 36.85-61.92 35.42-3.84 0.5-70.12-13.09-52.59-82.1z"/>
	<path id="Color Fill 1 copy" class="s1" d="m160.81 32.64c0 0-1.6 3.12-2.94 6.63-4.66 12.16-15.4 31.88 3.63 63.26 13.19 16.15 33.64 36.25 82.81 18.32 0.12 0.2-7.42 11.73-21.73 18.92-17.58 8.84-44.6 12-70.63-10.03-3.33-1.96-47.33-53.36 8.86-97.1z"/>
	<path id="Color Fill 1 copy 2" class="s1" d="m151.07 144.26c0 0-3.43-0.74-7.16-1.13-12.96-1.34-34.78-6.62-60.17 19.88-12.18 16.92-26.31 41.88 3.74 84.73-0.17 0.17-13.25-4.13-23.9-16.09-13.09-14.69-23.14-39.97-8.59-70.81 1.03-3.74 39.29-59.53 96.08-16.58z"/>
	<path id="Layer 2" class="s2" d="m152.3 214.24c5.49-12.64 6.73-19.55 4.74-29.44-2-9.89-8.06-11.88-9.2-12.7-1.13-0.82-7.3 3.19-9.28 14.05-1.2 6.64-9.7 18.15-10.47 29-0.27 3.74 0 9.44 1.81 12.69 1.57 2.82 16.91-0.96 22.4-13.6zm76.53-166.39c0 0-16.18-13.6-22-5-5.83 8.6 4.14 26.34 4.14 26.34 0 0 9.41 9.92 15.25 11.78 0 0 5.13 1.89 9.01-0.04 3.15-1.57 8.08-5.37 7.6-10.08-0.49-4.71-5-13-5-13"/>
	<path id="Color Fill 2" class="s3" d="m31.96 31.26c0 0 3.15-9.25 32.27-10.21 29.13-0.97 22.59 12.9 22.59 12.9 0 0-0.02 12.81-22.05 12.91-22.03 0.1-22.72-0.95-29.58-4.84-6.86-3.89-3.23-10.76-3.23-10.76z"/>
</svg>